<?xml version="1.0" encoding="UTF-8" standalone="no"?>
<svg
   id="Layer_1"
   data-name="Layer 1"
   width="100"
   height="100"
   viewBox="0 0 100 100"
   version="1.1"
   sodipodi:docname="dice-06 - Copie.svg"
   inkscape:version="1.2.1 (9c6d41e410, 2022-07-14)"
   xmlns:inkscape="http://www.inkscape.org/namespaces/inkscape"
   xmlns:sodipodi="http://sodipodi.sourceforge.net/DTD/sodipodi-0.dtd"
   xmlns="http://www.w3.org/2000/svg"
   xmlns:svg="http://www.w3.org/2000/svg">
  <defs
     id="defs656" />
  <sodipodi:namedview
     id="namedview654"
     pagecolor="#ffffff"
     bordercolor="#000000"
     borderopacity="0.25"
     inkscape:showpageshadow="2"
     inkscape:pageopacity="0.0"
     inkscape:pagecheckerboard="0"
     inkscape:deskcolor="#d1d1d1"
     showgrid="false"
     inkscape:zoom="8.77"
     inkscape:cx="49.942987"
     inkscape:cy="50.057013"
     inkscape:window-width="1920"
     inkscape:window-height="1057"
     inkscape:window-x="1912"
     inkscape:window-y="-8"
     inkscape:window-maximized="1"
     inkscape:current-layer="Layer_1" />
  <title
     id="title635">dice</title>
  <g
     id="g651">
    <path
       d="M26.35357,33.80355A9.14312,9.14312,0,0,1,17.391,24.49628a9.14576,9.14576,0,0,1,8.96255-9.30057,9.13832,9.13832,0,0,1,8.9561,9.30057A9.13569,9.13569,0,0,1,26.35357,33.80355Z"
       style="fill: #e92e3d"
       id="path639" />
    <path
       d="M74.02377,58.89532a9.30694,9.30694,0,1,1,8.96255-9.30057A9.13039,9.13039,0,0,1,74.02377,58.89532Z"
       style="fill: #e92e3d"
       id="path641" />
    <ellipse
       cx="26.48257"
       cy="49.59475"
       rx="8.9561"
       ry="9.30057"
       style="fill: #e92e3d"
       id="ellipse643" />
    <ellipse
       cx="74.72039"
       cy="74.20425"
       rx="8.95933"
       ry="9.30057"
       style="fill: #e92e3d"
       id="ellipse645" />
    <path
       d="M74.2076,33.96431a9.13452,9.13452,0,0,1-8.9561-9.29387,8.96248,8.96248,0,1,1,17.91221,0A9.13665,9.13665,0,0,1,74.2076,33.96431Z"
       style="fill: #e92e3d"
       id="path647" />
    <path
       d="M26.56965,83.29382a9.30719,9.30719,0,0,1,0-18.60114,9.30694,9.30694,0,0,1,0,18.60114Z"
       style="fill: #e92e3d"
       id="path649" />
  </g>
</svg>
