<?xml version="1.0" encoding="UTF-8" standalone="no"?>
<svg
   height="40"
   width="40"
   version="1.1"
   id="svg12"
   sodipodi:docname="hold.svg"
   inkscape:version="1.2.1 (9c6d41e410, 2022-07-14)"
   xmlns:inkscape="http://www.inkscape.org/namespaces/inkscape"
   xmlns:sodipodi="http://sodipodi.sourceforge.net/DTD/sodipodi-0.dtd"
   xmlns="http://www.w3.org/2000/svg"
   xmlns:svg="http://www.w3.org/2000/svg">
  <defs
     id="defs16" />
  <sodipodi:namedview
     id="namedview14"
     pagecolor="#ffffff"
     bordercolor="#000000"
     borderopacity="0.25"
     inkscape:showpageshadow="2"
     inkscape:pageopacity="0.0"
     inkscape:pagecheckerboard="0"
     inkscape:deskcolor="#d1d1d1"
     showgrid="false"
     inkscape:zoom="21.925"
     inkscape:cx="19.977195"
     inkscape:cy="19.977195"
     inkscape:window-width="1920"
     inkscape:window-height="1057"
     inkscape:window-x="1912"
     inkscape:window-y="-8"
     inkscape:window-maximized="1"
     inkscape:current-layer="svg12" />
  <path
     d="M 9.083,33.333 C 8.4163333,33.333 7.847,33.097 7.375,32.625 6.903,32.153 6.667,31.583667 6.667,30.917 V 15.75 c 0,-0.666667 0.236,-1.236 0.708,-1.708 0.472,-0.472667 1.0413333,-0.709 1.708,-0.709 h 5.834 V 14.75 H 9.083 c -0.25,0 -0.479,0.104 -0.687,0.312 C 8.1873333,15.270667 8.083,15.5 8.083,15.75 v 15.167 c 0,0.25 0.1043333,0.479 0.313,0.687 0.208,0.208667 0.437,0.313 0.687,0.313 h 21.834 c 0.25,0 0.479,-0.104333 0.687,-0.313 0.208667,-0.208 0.313,-0.437 0.313,-0.687 V 15.75 c 0,-0.25 -0.104333,-0.479333 -0.313,-0.688 -0.208,-0.208 -0.437,-0.312 -0.687,-0.312 h -5.834 v -1.417 h 5.834 c 0.666667,0 1.236,0.236333 1.708,0.709 0.472,0.472 0.708,1.041333 0.708,1.708 v 15.167 c 0,0.666667 -0.236,1.236 -0.708,1.708 -0.472,0.472 -1.041333,0.708 -1.708,0.708 z M 20,25.458 l -5.542,-5.541 1.042,-1 3.792,3.833 -0.09122,-18.8360889 h 1.59844 L 20.708,22.75 l 3.834,-3.833 1,1 z"
     id="path10"
     style="fill:#ff0000"
     sodipodi:nodetypes="sssscsccsssscsscssssccscssssscccccccccc" />
</svg>
