<?xml version="1.0" encoding="UTF-8" standalone="no"?>
<svg
   height="40"
   width="40"
   version="1.1"
   id="svg304"
   sodipodi:docname="roll-dice-red.svg"
   inkscape:version="1.2.1 (9c6d41e410, 2022-07-14)"
   xmlns:inkscape="http://www.inkscape.org/namespaces/inkscape"
   xmlns:sodipodi="http://sodipodi.sourceforge.net/DTD/sodipodi-0.dtd"
   xmlns="http://www.w3.org/2000/svg"
   xmlns:svg="http://www.w3.org/2000/svg">
  <defs
     id="defs308" />
  <sodipodi:namedview
     id="namedview306"
     pagecolor="#ffffff"
     bordercolor="#000000"
     borderopacity="0.25"
     inkscape:showpageshadow="2"
     inkscape:pageopacity="0.0"
     inkscape:pagecheckerboard="0"
     inkscape:deskcolor="#d1d1d1"
     showgrid="false"
     inkscape:zoom="21.925"
     inkscape:cx="20.433295"
     inkscape:cy="20.250855"
     inkscape:window-width="1920"
     inkscape:window-height="1057"
     inkscape:window-x="1912"
     inkscape:window-y="-8"
     inkscape:window-maximized="1"
     inkscape:current-layer="svg304" />
  <path
     d="m 8.0779111,10.443682 h 1.887767 v 5.042187 l 1.0190689,-1.150976 c 1.207785,-1.45587 2.528799,-2.508072 3.963043,-3.156607 1.434244,-0.648536 2.969036,-0.972803 4.604376,-0.972803 2.541178,0 4.837176,0.774304 6.887995,2.322912 2.050817,1.547974 3.478721,3.60569 4.283708,6.173153 h -1.962045 c -0.754864,-1.95831 -1.975331,-3.53296 -3.661398,-4.723954 -1.686067,-1.190991 -3.535487,-1.786488 -5.54826,-1.786488 -1.40888,0 -2.692151,0.277898 -3.849813,0.833694 -1.157661,0.555797 -2.201791,1.362813 -3.132388,2.42105 l -1.170344,1.390126 h 4.642422 v 1.984671 l -7.9641319,0.130371 z m -0.170081,13.399731 h 2.000091 c 0.7548669,1.958309 1.9753329,3.52629 3.6613989,4.703945 1.686068,1.177653 3.535488,1.76648 5.54826,1.76648 1.233149,0 2.447274,-0.277899 3.642377,-0.833695 1.195101,-0.555796 2.270633,-1.349792 3.226596,-2.381985 l 1.283572,-1.349157 h -4.642422 v -1.985623 h 7.964131 v 8.336948 h -1.887768 v -5.041233 l -1.056207,1.110958 c -1.283269,1.403149 -2.667391,2.442011 -4.152362,3.116589 -1.484366,0.675215 -2.943672,1.01282 -4.377917,1.01282 -2.541178,0 -4.837176,-0.774304 -6.887994,-2.32291 C 9.9721901,28.298206 8.7381821,26.384198 7.9078301,23.843413 Z"
     id="path302"
     sodipodi:nodetypes="ccccsscccsssccccccccsssccccccccccscc"
     style="fill:#d40000;stroke-width:0.929023" />
</svg>
